<svg width="25" height="25" viewBox="0 0 25 25" fill="none" xmlns="http://www.w3.org/2000/svg">
<path d="M20.15 9.08639L15.31 8.66639L13.42 4.21639C13.08 3.40639 11.92 3.40639 11.58 4.21639L9.69001 8.67639L4.86001 9.08639C3.98001 9.15639 3.62001 10.2564 4.29001 10.8364L7.96001 14.0164L6.86001 18.7364C6.66001 19.5964 7.59001 20.2764 8.35001 19.8164L12.5 17.3164L16.65 19.8264C17.41 20.2864 18.34 19.6064 18.14 18.7464L17.04 14.0164L20.71 10.8364C21.38 10.2564 21.03 9.15639 20.15 9.08639ZM12.5 15.4464L8.74001 17.7164L9.74001 13.4364L6.42001 10.5564L10.8 10.1764L12.5 6.14639L14.21 10.1864L18.59 10.5664L15.27 13.4464L16.27 17.7264L12.5 15.4464Z" fill="#FFC400"/>
</svg>
